<svg viewBox="0 0 429.592 106.48" xmlns="http://www.w3.org/2000/svg" width="200" height="58"><path style="fill:#fff;fill-opacity:0;pointer-events:none" d="M0 0h429.592v106.48H0z" fill="none"/><defs><clipPath id="a" clipPathUnits="userSpaceOnUse"><path d="M0 595.276h841.89V0H0Z"/></clipPath></defs><g clip-path="url(#a)" transform="matrix(1.64629 0 0 -1.64629 -477.485 542.952)"><path style="fill:#231f20;fill-opacity:1;fill-rule:nonzero;stroke:none" d="m0 0 .093-.181 12.666-15.617h10.579V5.039h-6.162v-15.78l-.106.252L4.503 5.039H-6.162v-20.837H0Zm-31.271-1.203c0 .395.139.701.449.934.283.233.769.359 1.474.359h11.929c.744 0 1.264-.09 1.527-.271.27-.176.415-.519.415-1.022v-8.464c0-.322-.158-.61-.481-.822-.342-.235-.849-.344-1.54-.344h-11.85c-.757 0-1.257.092-1.527.252-.257.179-.396.484-.396.914zm-5.891-9.286c0-.845.112-1.563.309-2.153.178-.572.553-1.11 1.073-1.596a5.5 5.5 0 0 1 1.548-1.022c.552-.233 1.27-.413 2.132-.538.882-.106 1.922-.18 3.18-.216 1.237-.036 3.048-.053 5.457-.053q3.576 0 5.49.053 1.887.055 3.181.216 1.293.188 2.152.538a4.9 4.9 0 0 1 1.56 1.022c.54.486.902 1.024 1.1 1.596q.288.885.29 2.153V-.287c0 .842-.099 1.561-.29 2.115-.198.556-.56 1.077-1.1 1.561a5.5 5.5 0 0 1-1.52 1.058c-.58.25-1.277.431-2.12.538-.849.089-1.87.161-3.068.196a376 376 0 0 1-5.608.038c-2.509 0-4.378-.02-5.583-.038a43 43 0 0 1-3.101-.196q-1.293-.162-2.152-.538a5.5 5.5 0 0 1-1.548-1.058c-.52-.484-.895-1.005-1.073-1.561-.197-.554-.309-1.273-.309-2.115zm-16.53-.344V5.039h-6.537v-20.927h20.677v5.055zm-15.925-5.055h6.518V5.039h-6.518zm-3.681 10.455c-.79 1.327-2.152 2.026-4.114 2.135-.356.033-.836.07-1.396.089-.572.036-1.277.052-2.099.09a545 545 0 0 1-4.438.16q-2.312.08-2.798.108h-1.092c-.85 0-1.508.107-1.995.321-.488.216-.717.665-.717 1.327 0 .378.065.682.229.916.146.231.35.394.593.519.257.11.521.181.81.215a7 7 0 0 0 .955.054h16.134v4.538H-92.85c-1.935 0-3.318-.558-4.161-1.632-.822-1.077-1.257-2.709-1.257-4.879 0-1.737.31-3.066.915-3.961.843-1.183 2.265-1.832 4.234-1.937.394-.036.868-.071 1.401-.09.56-.035 1.146-.057 1.758-.089.632-.017 2.18-.072 4.615-.163q2.342-.08 2.858-.106c.559 0 1.007-.019 1.401-.037a5.4 5.4 0 0 0 1.093-.213c.356-.127.645-.307.876-.557.223-.269.329-.61.329-1.042 0-.358-.072-.663-.237-.894a1.37 1.37 0 0 0-.645-.521 3.4 3.4 0 0 0-.862-.233 8 8 0 0 0-1.028-.055h-16.135v-4.518h18.907c2.225 0 3.845.503 4.825 1.523q1.51 1.508 1.508 4.897c0 1.613-.289 2.959-.843 4.035m-34.193-3.769c2.403 0 4.108.629 5.109 1.867 1.007 1.255 1.514 3.209 1.514 5.845 0 1.274-.145 2.332-.447 3.175-.31.825-.777 1.489-1.403 1.974-.625.483-1.435.842-2.409 1.056q-1.48.322-3.661.324h-16.8v-20.927h6.537V-.216h9.71c.626 0 1.179-.197 1.686-.609.487-.411.757-.897.79-1.489 0-.734-.257-1.29-.777-1.684a2.76 2.76 0 0 0-1.771-.61h-8.742l5.128-4.594zm-37.109-1.807v3.46h15.417v4.231H-144.6V.179h16.425v4.86h-22.956v-20.927h22.956v4.879z" transform="translate(522.669 302.957)"/><path style="fill:#211d1d;fill-opacity:1;fill-rule:nonzero;stroke:none" d="M0 0q1.537 0 2.446.934.91.933.91 2.41 0 1.475-.91 2.409T0 6.687h-1.562V0Zm-.074 7.474q1.99 0 3.104-1.168 1.112-1.168 1.113-2.962 0-1.784-1.131-2.957Q1.881-.787-.074-.787h-2.275v8.261z" transform="translate(404.157 273.518)"/><path style="fill:#211d1d;fill-opacity:1;fill-rule:nonzero;stroke:none" d="M0 0h-3.737v-2.951H-.59v-.786h-3.147v-2.95H0v-.788h-4.524V.786H0z" transform="translate(414.103 280.205)"/><path style="fill:#211d1d;fill-opacity:1;fill-rule:nonzero;stroke:none" d="M0 0v8.261h4.524v-.786H.787V4.523h3.147v-.786H.787V0Z" transform="translate(415.676 272.73)"/><path style="fill:#211d1d;fill-opacity:1;fill-rule:nonzero;stroke:none" d="M422.363 272.731h-.787v8.261h.787z"/><path style="fill:#211d1d;fill-opacity:1;fill-rule:nonzero;stroke:none" d="m0 0-5.704 6.579V.187h-.787v8.447l5.705-6.578v6.391H0Z" transform="translate(430.624 272.544)"/><path style="fill:#211d1d;fill-opacity:1;fill-rule:nonzero;stroke:none" d="M0 0h-3.737v-2.951h3.146v-.786h-3.146v-2.95H0v-.788h-4.524V.786H0z" transform="translate(436.919 280.205)"/><path style="fill:#211d1d;fill-opacity:1;fill-rule:nonzero;stroke:none" d="M0 0h.886l-2.951-4.523v-3.738h-.787v3.738L-5.802 0h.885l2.459-3.77z" transform="translate(447.441 280.991)"/><path style="fill:#211d1d;fill-opacity:1;fill-rule:nonzero;stroke:none" d="M0 0q1.002-1.002 2.44-1.002 1.439 0 2.441 1.002t1.002 2.44-1.002 2.44T2.44 5.882Q1.002 5.882 0 4.88t-1.002-2.44T0 0m-.547 5.427Q.694 6.669 2.44 6.669t2.988-1.242Q6.67 4.187 6.669 2.44q0-1.746-1.241-2.987T2.44-1.789q-1.745 0-2.987 1.242Q-1.788.693-1.788 2.44q0 1.746 1.241 2.987" transform="translate(450.214 274.421)"/><path style="fill:#211d1d;fill-opacity:1;fill-rule:nonzero;stroke:none" d="M0 0h.786v-4.818q0-1.697-.774-2.619t-2.176-.922q-1.438 0-2.194.916-.756.915-.756 2.625V0h.787v-4.917q0-1.303.571-1.979t1.592-.676 1.592.676Q.001-6.22 0-4.917Z" transform="translate(463.08 280.991)"/><path style="fill:#211d1d;fill-opacity:1;fill-rule:nonzero;stroke:none" d="M0 0v-3.737h1.967q.871 0 1.42.448.546.449.547 1.408 0 .958-.579 1.42-.576.462-1.45.461Zm4.917-7.475h-.934L1.759-4.524H0v-2.951h-.787V.786h2.36Q3.146.787 3.934.098q.787-.688.787-1.906 0-1.019-.554-1.745-.553-.725-1.536-.909Z" transform="translate(466.227 280.205)"/><path style="fill:#211d1d;fill-opacity:1;fill-rule:nonzero;stroke:none" d="M0 0q1.537 0 2.446.934.91.933.909 2.41 0 1.475-.909 2.409-.91.934-2.446.934h-1.562V0Zm-.074 7.474q1.992 0 3.104-1.168t1.113-2.962q0-1.784-1.131-2.957Q1.881-.787-.074-.787h-2.274v8.261z" transform="translate(478.802 273.518)"/><path style="fill:#211d1d;fill-opacity:1;fill-rule:nonzero;stroke:none" d="M0 0h-3.736v-2.951H-.59v-.786h-3.146v-2.95H0v-.788h-4.523V.786H0z" transform="translate(488.747 280.205)"/><path style="fill:#211d1d;fill-opacity:1;fill-rule:nonzero;stroke:none" d="M0 0q1.524-.308 2.152-.854.626-.548.626-1.592 0-.948-.836-1.636-.835-.689-2.089-.689-.652 0-1.217.172a3.2 3.2 0 0 0-.928.431 5 5 0 0 0-.547.43 2 2 0 0 0-.283.307l.393.702a3.2 3.2 0 0 1 1.082-.904q.665-.35 1.524-.35.873 0 1.494.461.62.46.621 1.125 0 .602-.468 1.001-.466.399-1.609.609-1.575.283-2.158.829-.585.548-.584 1.445 0 .933.762 1.568.762.633 1.992.633 1.486 0 2.459-.984l-.369-.676Q1.216 2.9-.085 2.9q-.837 0-1.396-.362-.56-.363-.56-1.002 0-.626.474-.972Q-1.093.221 0 0" transform="translate(493.05 277.403)"/><path style="fill:#211d1d;fill-opacity:1;fill-rule:nonzero;stroke:none" d="M497.992 272.731h-.787v8.261h.787z"/><path style="fill:#211d1d;fill-opacity:1;fill-rule:nonzero;stroke:none" d="M0 0v-.196q0-1.771-1.149-3t-2.883-1.23q-1.745 0-2.988 1.242T-8.261-.196q0 1.746 1.241 2.986 1.244 1.242 2.988 1.242 1.216 0 2.164-.621a4.3 4.3 0 0 0 1.487-1.69L-1.18 1.5a3.2 3.2 0 0 1-1.156 1.272q-.75.473-1.696.473-1.426 0-2.434-1.008A3.3 3.3 0 0 1-7.475-.196q0-1.426 1.009-2.435a3.32 3.32 0 0 1 2.434-1.008q1.254 0 2.133.806.879.805 1.063 2.047h-3.491V0Z" transform="translate(507.531 277.058)"/><path style="fill:#211d1d;fill-opacity:1;fill-rule:nonzero;stroke:none" d="m0 0-5.704 6.579V.187h-.787v8.447l5.704-6.578v6.391H0Z" transform="translate(515.3 272.544)"/><path style="fill:#8e9194;fill-opacity:1;fill-rule:nonzero;stroke:none" d="M360.954 270.902h-1.394v53.473h1.394z"/><path style="fill:#ed1c24;fill-opacity:1;fill-rule:nonzero;stroke:none" d="m0 0-4.167-2.461c-1.053-.6-1.77-.931-2.675-1.419-3.545-1.912-5.19-2.463-8.704-2.463A16.58 16.58 0 0 0-27.988-.737l-8.873-5.123c4.882-6.438 12.611-10.599 21.315-10.599 13.41 0 24.513 9.874 26.439 22.749z" transform="translate(338.166 287.36)"/><path style="fill:#ed1c24;fill-opacity:1;fill-rule:nonzero;stroke:none" d="M0 0c-5.533 0-10.019-4.485-10.019-10.019 0-.606.063-1.198.167-1.775L6.466-2.373A9.97 9.97 0 0 1 0 0" transform="translate(322.62 307.656)"/><path style="fill:#231f20;fill-opacity:1;fill-rule:nonzero;stroke:none" d="M0 0a26 26 0 0 1-.573 2.792A26 26 0 0 1-1.636 6.01c-.068.171-.127.345-.199.514l-.009-.005C-5.922 16.067-15.39 22.76-26.429 22.76c-14.767 0-26.737-11.97-26.737-26.737 0-3.703.753-7.23 2.114-10.437l8.875 5.124a16.6 16.6 0 0 0-.873 5.313c0 9.18 7.442 16.621 16.621 16.621 7.294 0 13.487-4.701 15.724-11.237l.001-.004-14.398-8.312.009-.014-7.934-4.58a9.97 9.97 0 0 1 6.598-2.492c1.786 0 3.46.473 4.913 1.292L-9.94-6.02l7.674 4.432L.044-.255C.032-.169.013-.085 0 0" transform="translate(349.05 301.615)"/></g></svg>