<svg xmlns="http://www.w3.org/2000/svg" width="25" height="25" viewBox="0 0 25 25"><path style="stroke:none;fillRule:nonzero;fill:#262223;fillOpacity:1" d="M20.723 3.285c.027.024.05.047.078.067 2.12 1.843 3.629 4.535 3.969 7.324-.02.133-.02.133-.118.222q-.073.037-.148.079l-.086.05a5 5 0 0 0-.203.114q-.206.112-.41.23l-.754.434q-.463.258-.926.523a3 3 0 0 1-.164.094l-1.078.621q-.704.409-1.406.8l-1.372.786c-.418.246-.84.484-1.261.726q-.424.24-.84.48c-1.465.845-2.809 1.517-4.543 1.15-.676-.18-1.457-.497-1.953-1v-.15l.101-.058q.905-.514 1.809-1.035c.473-.273.95-.547 1.422-.816.367-.211.73-.418 1.094-.63q1.035-.595 2.078-1.19.945-.539 1.89-1.086c.586-.34 1.176-.672 1.766-1.008-.227-1.235-1.258-2.524-2.215-3.29q-.07-.057-.14-.117a7.5 7.5 0 0 0-1.317-.828c-.035-.02-.07-.035-.105-.054-1.774-.88-3.887-.993-5.77-.383-1.387.484-2.637 1.316-3.531 2.48q-.051.06-.102.125c-1.21 1.578-1.715 3.614-1.445 5.575.047.312.129.617.21.925.017.063.017.063.032.13q.016.052.031.113c.02.12.02.187-.035.3-.105.082-.105.082-.25.157-.05.027-.105.054-.156.085-.086.043-.086.043-.172.09l-.348.188-.175.094q-.293.16-.578.332-.633.369-1.266.726l-1.078.621c-.176-.156-.238-.343-.317-.562l-.046-.125a12.42 12.42 0 0 1 .488-9.434A12.4 12.4 0 0 1 3.27 4.383q.059-.064.117-.133c.445-.496.914-.95 1.441-1.363l.145-.114c3.933-3.117 9.812-3.425 15.75.512m0 0"/><path style="stroke:none;fillRule:nonzero;fill:#ed2128;fillOpacity:1" d="M24.75 14.242c-.164 2.528-1.605 4.938-3.312 6.754l-.09.094a9 9 0 0 1-.672.625q-.047.035-.094.078c-2.598 2.18-5.828 3.105-9.195 2.898a10 10 0 0 1-1.114-.168c-2.09-.41-4.027-1.28-5.644-2.66l-.121-.101c-.098-.082-.188-.164-.281-.246a3 3 0 0 0-.133-.114 2 2 0 0 0-.14-.12l-.126-.11a.9.9 0 0 1-.207-.305H3.52q-.106-.122-.211-.25a9 9 0 0 0-.532-.613c-.062-.082-.062-.082-.062-.234q.82-.47 1.64-.934c.055-.031.106-.063.165-.094.105-.062.21-.12.32-.183.254-.145.512-.293.765-.442q.178-.1.36-.207l.254-.148c.05-.032.101-.059.156-.09.047-.027.09-.05.137-.078a.9.9 0 0 1 .379-.114c.117.098.214.196.316.31 1.367 1.42 3.242 2.089 5.195 2.19 2.246.043 4.067-1 5.95-2.109l.789-.457.28-.164q.688-.4 1.38-.793.615-.35 1.23-.707.646-.374 1.297-.742c.246-.14.488-.281.735-.426q.058-.035.12-.07c.075-.043.145-.086.22-.13.234-.14.234-.14.347-.14m0 0"/><path style="stroke:none;fillRule:nonzero;fill:#ed252b;fillOpacity:1" d="M15.145 8.617q.205.146.398.297c-.063.184-.105.195-.273.29l-.145.081c-.078.047-.078.047-.156.09l-.164.094q-.174.095-.344.195-.333.187-.66.375l-.492.281-.985.563-.984.562c-.485.274-.965.547-1.445.828l-.446.258q-.304.171-.597.348l-.29.164-.136.082-.125.07-.106.063c-.097.039-.097.039-.246-.012-.219-1.086.035-2.273.614-3.219.785-1.148 1.812-1.828 3.175-2.136 1.172-.203 2.434.054 3.407.726m0 0"/><path style="stroke:none;fillRule:nonzero;fill:#f47d81;fillOpacity:1" d="m9.656 8.816.102.047a8 8 0 0 1-.238.274c-.036.039-.036.039-.067.078-.125.137-.21.23-.398.246.16-.27.36-.45.601-.645m0 0"/><path style="stroke:none;fillRule:nonzero;fill:#f7a8ab;fillOpacity:1" d="M24.75 14.242c-.02.164-.035.328-.05.5h-.052v-.351l-.152-.047c.152-.102.152-.102.254-.102m0 0"/></svg>