<?xml version="1.0" standalone="no"?>
<!DOCTYPE svg PUBLIC "-//W3C//DTD SVG 20010904//EN"
 "http://www.w3.org/TR/2001/REC-SVG-20010904/DTD/svg10.dtd">
<svg version="1.0" xmlns="http://www.w3.org/2000/svg"
 width="8905.000000pt" height="1920.000000pt" viewBox="0 0 8905.000000 1920.000000"
 preserveAspectRatio="xMidYMid meet">

<g transform="translate(0.000000,1920.000000) scale(0.100000,-0.100000)"
fill="#000000" stroke="none">
<path d="M9150 19075 c-600 -39 -1308 -151 -1795 -285 -38 -11 -113 -31 -165
-45 -134 -35 -567 -174 -690 -220 -84 -32 -175 -67 -225 -87 -27 -11 -59 -24
-70 -29 -87 -34 -214 -88 -283 -121 -46 -21 -86 -38 -89 -38 -17 0 -586 -289
-698 -354 -22 -13 -58 -34 -80 -46 -22 -13 -53 -31 -70 -41 -16 -10 -61 -36
-100 -59 -89 -52 -353 -222 -461 -297 -206 -144 -619 -453 -644 -482 -3 -4
-50 -44 -105 -91 -261 -222 -360 -313 -600 -554 -275 -276 -372 -382 -576
-626 -220 -263 -454 -577 -606 -810 -20 -30 -52 -79 -72 -109 -20 -30 -40 -63
-46 -73 -5 -9 -35 -57 -65 -105 -30 -48 -63 -104 -74 -123 -10 -19 -26 -46
-36 -60 -9 -14 -33 -54 -53 -90 -19 -36 -63 -114 -97 -175 -112 -199 -295
-584 -418 -875 -112 -268 -229 -595 -316 -885 -15 -49 -34 -112 -43 -140 -8
-27 -19 -66 -23 -85 -4 -19 -24 -96 -43 -170 -55 -206 -107 -445 -132 -600 -9
-52 -20 -111 -25 -130 -5 -19 -14 -71 -19 -115 -6 -44 -16 -111 -21 -150 -111
-737 -125 -1615 -40 -2400 36 -327 112 -775 182 -1065 16 -69 38 -161 48 -205
53 -227 232 -804 291 -932 10 -24 19 -47 19 -53 0 -5 23 -65 51 -132 28 -68
57 -142 66 -165 9 -26 21 -43 31 -43 16 0 247 125 427 232 55 33 109 64 120
71 27 15 391 224 435 250 19 11 51 30 71 41 45 26 247 142 303 175 51 30 84
49 166 95 36 21 72 41 80 46 18 11 216 125 279 161 25 15 60 35 78 45 30 18
372 214 457 262 22 13 61 36 86 52 25 15 158 91 295 169 138 78 261 151 274
162 l24 19 -22 83 c-12 45 -29 102 -37 127 -9 25 -20 65 -24 90 -5 25 -16 68
-24 95 -22 74 -46 178 -66 285 -10 52 -22 113 -28 135 -12 43 -50 317 -77 555
-22 185 -31 653 -16 820 18 214 49 493 59 540 6 25 13 74 17 110 4 36 15 98
26 139 10 41 19 87 19 102 0 15 9 55 19 90 10 35 22 82 26 104 6 38 20 89 67
250 32 111 69 227 84 265 7 19 17 51 23 70 11 40 70 189 107 268 13 29 24 57
24 62 0 14 155 338 201 420 154 277 241 421 341 566 26 38 65 94 85 124 21 30
103 137 183 236 308 386 608 683 999 989 122 96 132 103 329 236 272 185 570
350 857 479 28 12 64 28 80 36 137 62 421 166 600 219 50 15 117 35 150 45 94
28 395 98 450 105 28 4 77 13 111 21 60 14 220 38 369 55 44 5 206 16 360 25
286 16 448 12 815 -17 325 -26 840 -119 1070 -194 25 -8 86 -26 135 -41 50
-14 114 -34 143 -45 28 -10 76 -28 105 -38 105 -39 273 -103 302 -116 17 -8
75 -34 131 -59 347 -154 774 -405 1088 -638 237 -177 375 -295 590 -507 516
-508 881 -1009 1175 -1616 120 -247 107 -218 203 -450 11 -27 27 -66 35 -85
30 -69 53 -149 47 -164 -8 -21 -96 -77 -324 -204 -25 -13 -70 -39 -100 -57
-73 -44 -318 -186 -403 -234 -18 -10 -89 -51 -157 -91 -69 -40 -150 -86 -180
-103 -30 -16 -59 -33 -65 -37 -5 -4 -26 -17 -45 -28 -19 -10 -75 -43 -125 -72
-49 -29 -110 -64 -135 -77 -25 -14 -76 -45 -115 -68 -38 -24 -82 -49 -97 -56
-23 -12 -157 -89 -292 -168 -23 -13 -58 -33 -78 -45 -130 -73 -387 -222 -408
-236 -14 -10 -54 -33 -90 -53 -36 -19 -148 -83 -250 -143 -102 -59 -284 -164
-405 -234 -121 -70 -348 -201 -505 -292 -157 -91 -332 -192 -390 -225 -58 -33
-121 -70 -140 -81 -44 -25 -416 -241 -575 -334 -66 -38 -158 -93 -205 -120
-77 -46 -413 -241 -500 -291 -19 -11 -47 -27 -62 -36 -14 -9 -112 -65 -217
-126 -105 -60 -207 -119 -225 -130 -19 -11 -121 -69 -227 -130 -105 -60 -207
-119 -225 -130 -31 -19 -290 -168 -398 -229 -28 -15 -62 -36 -76 -44 -14 -9
-79 -48 -145 -85 -169 -97 -180 -104 -275 -159 -47 -28 -96 -58 -110 -67 -14
-10 -87 -53 -162 -96 -76 -43 -138 -82 -138 -86 0 -5 44 -43 98 -87 397 -320
871 -555 1352 -670 363 -86 516 -105 850 -105 140 0 291 5 335 11 44 6 116 16
160 22 242 30 614 137 880 250 149 64 545 273 645 340 14 9 50 31 80 47 30 17
93 53 138 79 46 27 107 62 135 78 29 15 93 52 142 81 50 30 109 64 132 77 45
25 105 59 248 143 50 29 109 63 132 76 23 13 108 63 190 110 81 47 236 137
343 199 107 62 211 122 230 133 19 11 53 30 75 43 67 37 358 206 390 225 17
11 44 26 60 34 17 8 46 25 67 37 20 13 107 64 193 113 87 50 176 101 199 115
75 44 335 194 400 230 35 19 70 40 77 46 8 6 95 57 194 113 99 57 272 156 385
222 113 66 212 122 220 126 8 4 42 23 75 43 33 21 138 82 233 136 95 55 200
115 235 135 34 20 123 71 197 113 74 43 151 87 170 98 19 11 55 32 80 48 25
15 119 69 209 121 90 52 176 101 190 109 116 68 379 219 409 235 20 11 42 24
47 28 6 5 105 63 220 129 116 66 297 170 403 232 106 61 205 117 220 125 15 7
38 21 52 30 13 9 52 32 87 51 63 36 260 148 345 198 95 54 108 79 90 166 -6
28 -16 92 -23 141 -6 50 -15 100 -20 112 -5 13 -15 67 -24 120 -9 54 -20 112
-25 128 -5 17 -21 84 -35 150 -32 145 -50 216 -76 315 -11 41 -28 107 -39 145
-48 182 -149 501 -215 680 -15 39 -35 93 -45 120 -42 115 -52 141 -69 179 -10
23 -33 79 -50 124 -18 46 -36 91 -41 100 -5 10 -21 44 -35 77 -48 110 -62 139
-176 370 -103 209 -234 454 -327 610 -51 86 -217 353 -249 401 -23 33 -108
159 -183 268 -108 158 -416 555 -524 676 -23 25 -70 79 -106 120 -224 257
-576 608 -829 825 -19 17 -53 46 -75 66 -89 77 -277 230 -396 320 -69 51 -127
97 -130 100 -3 3 -36 27 -75 55 -38 27 -83 59 -100 71 -83 60 -414 279 -520
343 -66 40 -131 80 -145 89 -14 8 -41 24 -60 34 -19 10 -64 36 -100 57 -232
138 -823 426 -1030 502 -30 11 -59 24 -65 29 -5 5 -15 9 -22 9 -7 0 -32 9 -56
19 -141 64 -673 244 -922 312 -44 12 -109 30 -145 40 -36 10 -119 30 -185 44
-66 15 -145 33 -175 40 -195 49 -692 130 -955 155 -49 5 -137 14 -195 20 -370
37 -1073 50 -1460 25z"/>
<path d="M70555 13364 c-781 -18 -1163 -35 -1395 -60 -229 -24 -498 -67 -530
-84 -10 -6 -27 -10 -38 -10 -23 0 -197 -52 -250 -76 -210 -90 -434 -230 -552
-344 -9 -8 -45 -42 -81 -74 -74 -69 -194 -207 -216 -251 -9 -16 -19 -32 -23
-35 -4 -3 -28 -45 -53 -95 -39 -76 -65 -147 -117 -320 -5 -16 -20 -95 -32
-175 l-23 -145 0 -2030 c0 -1663 2 -2052 14 -2150 41 -358 116 -575 270 -778
177 -234 382 -399 666 -536 77 -38 176 -79 220 -93 145 -46 220 -68 235 -68 8
0 56 -9 105 -19 477 -104 1193 -138 3065 -146 1366 -5 2358 13 2815 51 99 8
232 20 295 25 345 28 742 122 1002 236 232 101 481 290 644 488 27 33 52 62
55 65 27 24 132 210 153 272 8 24 21 61 29 83 26 69 55 215 72 355 13 116 16
408 20 2105 5 2187 3 2271 -59 2500 -48 180 -104 299 -204 439 -104 144 -318
344 -497 463 -151 101 -399 212 -555 248 -30 7 -62 15 -70 19 -8 3 -53 12
-100 21 -47 8 -107 20 -135 25 -46 10 -178 24 -465 50 -333 30 -1026 42 -2580
44 -861 2 -1619 2 -1685 0z m3820 -1795 c300 -17 394 -63 483 -234 22 -44 26
-66 32 -190 10 -204 11 -2858 1 -3001 -8 -116 -10 -125 -45 -182 -78 -129
-231 -213 -441 -242 -199 -28 -2142 -38 -3740 -20 -478 5 -913 15 -965 21
-197 22 -301 83 -370 219 -21 40 -24 66 -31 220 -12 282 -11 2925 2 3016 17
126 77 218 191 295 75 51 150 79 258 94 113 17 4356 20 4625 4z"/>
<path d="M80033 13310 c-1007 -3 -1835 -8 -1839 -13 -10 -9 -5 -7309 5 -7319
8 -9 2097 -11 2111 -3 6 4 11 595 11 1608 3 2550 12 3910 26 3914 20 7 81 -65
608 -717 60 -74 111 -137 114 -140 3 -3 53 -63 110 -135 58 -71 141 -175 186
-230 149 -183 429 -530 465 -576 61 -77 64 -82 100 -123 20 -23 48 -57 62 -76
15 -19 37 -47 50 -61 13 -15 34 -41 48 -59 14 -18 75 -93 135 -167 61 -74 121
-149 135 -166 14 -18 90 -113 170 -211 197 -243 208 -257 499 -615 141 -173
298 -367 349 -430 51 -64 98 -123 105 -131 48 -58 519 -638 557 -687 49 -63
499 -620 561 -694 35 -42 103 -123 152 -181 48 -58 98 -110 112 -116 28 -13
3656 -19 3676 -6 8 5 10 750 8 2698 -2 1480 0 3126 5 3657 8 941 8 966 -10
973 -23 9 -2059 5 -2094 -4 l-25 -6 0 -885 c0 -2525 -6 -4596 -14 -4608 -13
-21 -34 -4 -98 80 -90 118 -233 298 -408 513 -88 109 -171 212 -185 229 -61
79 -505 629 -569 706 -20 24 -85 106 -146 182 -145 181 -369 459 -471 584
-131 159 -648 798 -757 935 -108 135 -166 207 -182 224 -6 6 -45 54 -85 106
-41 52 -83 104 -92 115 -9 11 -80 99 -158 195 -77 96 -167 207 -198 245 -32
39 -116 142 -187 230 -71 88 -177 219 -235 290 -58 72 -168 207 -244 300 -76
94 -154 189 -173 213 -20 24 -86 107 -147 184 -115 146 -144 174 -186 180 -14
1 -849 1 -1857 -2z"/>
<path d="M27022 13298 c-7 -7 -6 -7309 1 -7341 2 -7 8033 -14 8041 -6 2 2 6
379 9 836 4 634 3 834 -6 840 -7 5 -1302 8 -2878 8 -2414 0 -2869 2 -2882 14
-16 12 -17 68 -17 617 0 578 1 604 19 613 12 7 937 10 2715 8 2237 -2 2697 0
2701 11 3 8 5 337 5 733 0 568 -3 719 -12 720 -7 0 -1223 0 -2702 -1 -2523 -1
-2689 0 -2707 16 -18 16 -19 41 -19 618 0 361 4 607 10 616 8 13 340 15 2885
16 1581 1 2879 4 2883 8 4 4 7 384 7 844 l0 837 -4022 1 c-2505 1 -4025 -2
-4031 -8z"/>
<path d="M36042 13295 c-8 -12 -9 -5216 -2 -6483 l5 -863 1122 -5 c743 -3
1123 -1 1128 5 3 6 7 1246 9 2756 2 2133 5 2748 15 2758 9 9 409 12 1779 11
l1767 0 106 -27 c152 -38 280 -106 418 -222 86 -72 205 -270 232 -385 26 -115
12 -292 -33 -410 -65 -170 -197 -312 -382 -410 -67 -36 -113 -54 -231 -87
l-90 -26 -1590 -4 c-874 -2 -1593 -7 -1598 -12 -8 -8 34 -47 253 -241 58 -51
146 -130 195 -175 50 -45 155 -140 235 -210 80 -71 192 -172 250 -224 58 -52
121 -109 140 -127 392 -355 646 -576 683 -597 30 -17 94 -17 1162 -14 758 2
1151 7 1195 15 36 6 106 15 155 21 238 29 498 107 714 213 329 161 530 359
715 703 21 39 49 97 63 130 13 33 31 76 40 95 9 19 20 48 24 65 4 16 16 57 27
90 31 92 55 176 63 220 4 22 14 69 22 105 38 164 54 276 87 635 12 131 12 645
0 760 -25 236 -42 369 -61 469 -20 104 -94 348 -122 404 -8 15 -31 62 -52 105
-21 43 -55 103 -77 135 -21 31 -50 75 -65 97 -68 103 -288 297 -427 375 -63
35 -160 84 -191 96 -16 6 -59 24 -95 39 -126 52 -328 112 -465 136 -33 6 -82
15 -110 20 -27 6 -86 14 -130 20 -44 5 -114 14 -155 19 -246 31 -408 32 -3553
34 -2103 1 -3171 -2 -3175 -9z"/>
<path d="M47305 13299 c-252 -20 -488 -78 -694 -171 -117 -53 -282 -164 -376
-254 -118 -112 -244 -303 -325 -489 -67 -153 -128 -351 -155 -500 -8 -44 -21
-111 -30 -150 -25 -115 -46 -384 -52 -650 -14 -681 122 -1227 386 -1545 161
-195 421 -366 691 -457 25 -8 54 -19 65 -23 81 -36 407 -94 615 -109 336 -25
431 -31 665 -41 138 -6 322 -15 410 -20 193 -11 357 -17 825 -30 195 -6 447
-14 560 -20 113 -5 354 -14 535 -20 182 -6 434 -15 560 -20 127 -6 359 -15
517 -20 467 -17 643 -59 833 -202 162 -123 236 -320 205 -547 -40 -295 -235
-442 -660 -498 -126 -16 -337 -18 -3065 -23 l-2930 -5 0 -780 0 -780 3490 0
c2809 0 3511 3 3600 13 247 29 406 63 604 129 386 128 643 318 837 619 54 84
135 239 149 284 4 14 13 39 20 55 33 77 89 283 115 425 6 36 16 85 21 110 35
171 47 645 25 930 -27 333 -96 683 -167 837 -10 24 -19 47 -19 52 0 25 -103
228 -155 306 -79 119 -245 285 -355 354 -47 30 -97 62 -112 72 -15 11 -30 19
-32 19 -3 0 -38 15 -78 34 -152 70 -380 134 -563 156 -49 6 -124 15 -165 20
-41 5 -174 14 -295 20 -121 6 -292 15 -380 20 -88 5 -230 12 -315 15 -85 3
-393 14 -685 25 -291 11 -672 24 -845 30 -173 6 -387 15 -475 20 -182 11 -900
30 -1108 30 -230 0 -547 27 -662 57 -55 14 -110 28 -123 30 -12 3 -25 9 -28
14 -3 5 -13 9 -22 9 -22 0 -108 58 -150 101 -155 159 -178 506 -47 709 91 141
217 214 455 263 l105 21 2975 6 2975 5 3 765 c1 421 0 775 -3 788 l-5 22
-3528 -1 c-1940 -1 -3576 -6 -3637 -10z"/>
<path d="M55800 13296 c-6 -6 -10 -1375 -10 -3678 l0 -3668 23 -5 c12 -3 517
-4 1122 -3 l1100 3 -3 2625 c-2 1444 1 3095 7 3670 6 685 6 1048 0 1055 -13
13 -2226 14 -2239 1z"/>
<path d="M59109 13294 c-5 -7 -8 -1383 -7 -3680 l3 -3669 3618 -3 c2900 -3
3621 -1 3633 9 13 11 14 110 9 872 -3 474 -8 863 -10 867 -2 3 -1115 5 -2474
3 -2330 -2 -2471 -1 -2491 15 -18 15 -22 30 -25 112 -8 192 -13 3191 -6 4310
3 635 3 1159 0 1163 -10 13 -2238 15 -2250 1z"/>
<path d="M9405 13165 c-93 -8 -208 -21 -255 -30 -209 -40 -450 -101 -518 -131
-18 -8 -37 -14 -43 -14 -51 0 -489 -205 -665 -312 -152 -91 -384 -259 -460
-333 -11 -11 -53 -49 -94 -85 -88 -79 -231 -223 -262 -266 -13 -17 -33 -42
-45 -55 -36 -39 -86 -102 -196 -251 -23 -31 -60 -87 -82 -123 -22 -37 -55 -89
-73 -117 -18 -27 -42 -70 -53 -96 -11 -26 -23 -49 -27 -52 -21 -15 -181 -371
-196 -435 -4 -16 -15 -48 -25 -70 -19 -41 -95 -313 -106 -375 -3 -19 -15 -75
-25 -125 -38 -183 -55 -377 -54 -635 0 -183 4 -269 17 -342 9 -54 17 -116 17
-137 0 -50 15 -91 34 -91 7 0 40 16 72 35 33 18 75 42 94 53 137 74 177 96
190 107 8 7 42 27 75 44 33 17 96 53 140 79 44 27 89 53 100 59 11 7 54 32 96
57 42 25 78 46 81 46 3 0 45 25 94 55 49 30 100 60 114 66 13 5 51 27 85 47
33 20 72 44 88 52 15 8 87 50 161 93 74 42 137 77 141 77 3 0 21 10 38 23 18
12 41 28 52 34 46 28 171 100 216 124 27 15 61 35 76 45 15 10 57 34 93 52 36
19 72 39 80 46 13 11 167 102 248 146 15 8 54 32 88 52 33 21 63 38 66 38 3 0
39 20 79 45 40 25 78 45 84 45 7 0 20 9 30 20 10 11 24 20 30 20 7 0 23 8 36
19 13 10 51 33 84 50 33 18 98 55 145 83 47 27 114 66 150 85 36 20 71 40 78
46 8 6 31 20 52 31 33 18 221 127 378 219 26 15 56 32 67 38 22 11 55 31 231
133 66 38 148 85 184 104 36 19 72 40 80 47 8 7 47 29 85 50 39 21 86 47 106
59 20 11 86 50 148 86 62 36 129 75 149 88 20 12 48 28 62 35 14 6 56 31 95
54 38 24 73 43 79 43 5 0 17 7 26 15 8 8 43 28 75 46 33 17 67 37 75 44 8 8
26 19 40 25 27 11 65 33 220 124 55 32 102 61 105 65 2 4 32 22 67 40 35 18
76 43 92 55 44 36 31 61 -71 136 -111 81 -181 130 -187 130 -3 0 -26 15 -53
33 -129 88 -389 223 -553 287 -30 12 -71 29 -90 37 -66 29 -275 95 -360 113
-47 10 -110 25 -140 33 -243 63 -707 90 -1055 62z"/>
<path d="M18960 8165 c-30 -18 -77 -45 -105 -60 -64 -34 -304 -171 -415 -237
-47 -28 -110 -64 -140 -80 -30 -17 -66 -38 -80 -46 -14 -9 -37 -23 -51 -32
-330 -189 -367 -211 -520 -300 -50 -29 -182 -105 -218 -126 -20 -11 -52 -30
-71 -41 -19 -11 -64 -37 -100 -57 -36 -21 -72 -41 -80 -46 -8 -5 -46 -28 -85
-50 -38 -22 -88 -51 -110 -65 -22 -13 -92 -54 -155 -90 -63 -36 -122 -70 -130
-75 -8 -5 -44 -25 -80 -46 -92 -52 -115 -65 -205 -119 -44 -26 -109 -63 -145
-83 -36 -19 -70 -39 -77 -44 -7 -5 -27 -18 -45 -27 -18 -10 -100 -57 -183
-105 -82 -49 -171 -100 -196 -114 -170 -98 -346 -200 -377 -220 -20 -12 -48
-28 -62 -35 -14 -6 -27 -15 -30 -19 -3 -4 -21 -14 -40 -23 -19 -9 -71 -38
-115 -65 -75 -46 -181 -109 -264 -156 -20 -11 -52 -30 -71 -42 -19 -12 -51
-30 -70 -39 -19 -10 -39 -21 -45 -26 -23 -17 -86 -57 -150 -93 -37 -22 -88
-51 -114 -66 -25 -16 -55 -32 -66 -38 -11 -6 -40 -24 -65 -40 -25 -16 -60 -36
-77 -44 -18 -8 -38 -20 -45 -26 -7 -7 -62 -41 -123 -75 -60 -35 -175 -101
-253 -147 -177 -103 -281 -158 -682 -365 -69 -36 -132 -69 -140 -73 -20 -12
-248 -133 -396 -211 -145 -76 -492 -249 -499 -249 -3 0 -49 -21 -103 -46 -53
-25 -106 -49 -117 -54 -11 -5 -46 -20 -79 -34 -32 -14 -63 -26 -69 -26 -6 0
-29 -9 -51 -20 -45 -21 -213 -80 -316 -111 -239 -71 -367 -101 -545 -129 -66
-10 -142 -23 -170 -29 -27 -6 -167 -20 -310 -31 -458 -36 -1003 -26 -1340 27
-55 8 -147 21 -204 29 -56 7 -117 17 -135 23 -17 5 -65 15 -106 21 -41 6 -97
18 -125 26 -60 16 -149 40 -225 58 -88 22 -244 68 -255 76 -5 4 -28 11 -50 14
-22 4 -49 13 -60 20 -11 8 -36 17 -55 21 -19 4 -54 16 -77 26 -23 11 -48 19
-55 19 -7 0 -27 9 -44 19 -17 10 -46 22 -65 26 -19 4 -50 16 -69 26 -19 10
-53 26 -75 35 -40 16 -109 48 -217 98 -32 15 -60 31 -63 36 -3 4 -16 11 -31
14 -14 4 -51 21 -81 39 -30 18 -81 46 -112 62 -157 84 -173 94 -351 211 -180
119 -255 172 -345 242 -44 35 -93 73 -109 85 -16 12 -50 40 -76 62 -26 22 -56
47 -66 55 -86 70 -220 196 -391 368 -227 229 -200 216 -311 153 -35 -20 -97
-54 -137 -76 -40 -22 -124 -70 -187 -106 -183 -107 -491 -287 -518 -302 -14
-8 -54 -31 -90 -51 -36 -20 -72 -40 -80 -45 -18 -11 -154 -90 -520 -301 -558
-322 -647 -373 -710 -407 -36 -20 -72 -42 -81 -49 -8 -8 -19 -14 -23 -14 -4 0
-21 -9 -37 -21 -17 -11 -55 -35 -87 -51 -31 -17 -68 -39 -81 -49 -13 -11 -28
-19 -34 -19 -5 0 -40 -19 -76 -42 -37 -24 -76 -49 -86 -56 -11 -6 -42 -24 -68
-40 -27 -15 -68 -39 -90 -54 -23 -15 -48 -28 -54 -28 -34 0 -2 -51 151 -240
34 -41 68 -84 76 -94 136 -172 577 -634 865 -907 186 -176 614 -528 805 -662
14 -10 52 -37 85 -61 90 -66 444 -306 451 -306 3 0 24 -13 47 -29 51 -34 152
-97 231 -142 32 -19 75 -44 95 -56 20 -11 68 -38 106 -58 39 -20 77 -43 85
-50 8 -7 26 -16 39 -20 13 -4 45 -19 70 -34 44 -26 247 -126 453 -225 53 -25
103 -46 110 -46 8 0 23 -7 34 -15 12 -8 45 -24 75 -35 30 -12 83 -34 119 -50
36 -15 92 -38 125 -51 33 -12 74 -28 90 -35 17 -8 55 -22 85 -32 30 -11 120
-43 200 -71 80 -29 168 -58 195 -66 28 -8 86 -26 130 -41 44 -14 105 -32 135
-40 30 -7 96 -25 145 -39 50 -15 117 -33 150 -40 33 -7 96 -22 140 -33 44 -11
127 -29 185 -41 58 -12 143 -31 190 -42 47 -10 99 -19 115 -19 17 0 62 -7 100
-16 39 -9 113 -22 165 -29 52 -8 122 -19 155 -24 33 -6 114 -16 180 -21 66 -6
152 -15 190 -20 147 -19 602 -40 890 -39 288 0 717 18 895 39 47 5 137 14 200
19 155 14 611 84 695 107 28 7 81 18 119 24 38 6 73 13 77 16 4 2 49 13 101
25 51 11 130 29 175 39 45 10 104 25 130 33 26 8 93 27 148 42 115 31 163 45
370 110 150 47 220 72 305 105 25 10 79 30 120 45 41 15 93 36 116 46 23 10
45 19 50 19 5 0 50 18 99 39 366 161 452 201 611 282 266 136 323 166 337 177
6 5 44 26 82 47 39 20 88 47 110 61 22 13 56 33 75 44 19 11 55 34 80 50 25
16 52 33 60 37 8 4 26 14 40 23 14 9 86 56 160 105 129 83 213 140 235 157 9
7 58 43 198 143 16 11 48 36 72 55 24 19 60 46 80 60 64 44 219 169 304 246
26 22 69 58 96 79 165 129 638 591 870 851 39 43 77 85 86 94 44 46 337 411
434 541 33 44 69 92 81 107 11 15 37 50 56 77 19 28 54 78 79 113 24 35 52 76
61 90 10 15 22 34 28 42 52 76 150 231 150 236 0 4 7 15 15 25 16 17 125 197
125 206 0 3 9 18 20 33 11 16 34 55 50 87 17 32 50 94 75 138 48 87 285 560
285 568 0 3 20 49 45 101 25 53 45 102 45 109 0 7 4 17 9 23 8 8 58 127 112
269 11 28 23 59 28 70 5 11 20 53 35 93 14 39 37 102 50 140 14 37 35 99 47
137 12 39 30 93 40 120 18 50 49 155 89 295 11 41 29 104 40 140 10 36 30 115
45 175 14 61 32 130 40 155 8 25 17 65 20 90 6 44 28 153 61 295 9 39 20 102
24 142 5 39 11 81 14 91 11 33 -17 32 -74 -3z"/>
<path d="M45580 2341 l0 -1460 46 -7 c60 -9 170 0 189 16 13 11 15 154 17
1118 2 829 6 1106 15 1109 11 4 47 -36 368 -407 83 -95 215 -248 295 -339 80
-91 183 -211 230 -266 91 -108 98 -116 216 -250 44 -49 135 -155 204 -235 68
-80 127 -147 130 -150 3 -3 61 -70 130 -150 68 -80 127 -147 130 -150 6 -5
106 -118 213 -243 32 -37 64 -67 70 -67 18 0 12 2891 -6 2902 -20 13 -201 9
-220 -4 -16 -12 -17 -93 -20 -1108 -2 -1056 -3 -1095 -20 -1098 -24 -5 -58 27
-175 168 -52 63 -100 120 -106 125 -6 6 -67 75 -135 155 -68 80 -154 179 -191
220 -73 82 -210 241 -335 390 -44 52 -134 156 -200 230 -66 74 -142 162 -170
195 -53 64 -83 98 -185 214 -36 40 -71 83 -79 95 -15 21 -39 48 -137 155 -28
31 -80 90 -115 131 -35 41 -68 80 -74 86 -5 6 -23 28 -40 48 -16 20 -33 36
-37 36 -5 0 -8 -657 -8 -1459z"/>
<path d="M55350 3779 c-135 -27 -343 -98 -373 -128 -6 -6 -16 -11 -23 -11 -11
0 -206 -127 -254 -165 -77 -62 -241 -241 -293 -320 -73 -111 -157 -283 -191
-391 -61 -197 -80 -510 -42 -709 17 -92 53 -221 75 -270 109 -242 197 -371
363 -533 222 -218 512 -357 813 -392 117 -13 330 -13 436 1 442 57 874 370
1097 794 58 110 114 280 134 405 16 100 16 414 0 520 -38 261 -200 574 -403
780 -212 217 -473 356 -779 416 -160 31 -410 32 -560 3z m477 -245 c220 -33
364 -96 563 -246 143 -107 272 -266 345 -423 20 -44 40 -89 45 -100 54 -118
84 -355 69 -549 -11 -147 -15 -171 -45 -269 -59 -193 -166 -363 -321 -514
-164 -158 -341 -255 -573 -313 -85 -22 -269 -31 -397 -20 -131 11 -150 15
-265 49 -229 67 -478 259 -645 497 -33 47 -109 204 -124 254 -7 25 -16 50 -19
55 -8 11 -22 73 -41 180 -17 94 -17 281 0 385 52 325 221 595 509 814 225 171
572 249 899 200z"/>
<path d="M69585 3778 c-120 -28 -171 -47 -279 -106 -264 -143 -396 -363 -396
-660 0 -86 22 -202 52 -268 33 -75 114 -180 182 -235 54 -44 177 -112 261
-146 77 -30 322 -93 420 -109 127 -20 353 -83 415 -116 19 -10 39 -18 45 -18
5 0 44 -22 85 -48 75 -48 147 -122 189 -196 32 -56 47 -184 33 -290 -14 -108
-51 -177 -147 -271 -79 -78 -164 -128 -302 -177 -82 -29 -99 -32 -254 -36
-190 -5 -291 6 -405 43 -168 55 -313 143 -454 275 -47 44 -92 80 -101 80 -21
0 -122 -175 -114 -199 9 -30 128 -146 211 -207 116 -85 273 -162 399 -196 166
-45 442 -61 626 -37 280 37 549 200 697 423 96 144 127 303 99 503 -26 179
-66 270 -167 377 -65 69 -116 105 -234 163 -117 58 -354 134 -541 172 -177 37
-267 63 -435 126 -153 58 -269 183 -299 323 -48 226 48 409 270 515 52 25 121
50 154 57 33 6 79 16 102 21 74 16 260 10 375 -11 197 -38 303 -89 470 -227
28 -23 55 -40 59 -37 21 13 102 159 102 185 0 34 -33 70 -123 130 -158 107
-282 161 -455 198 -135 29 -418 28 -540 -1z"/>
<path d="M73280 3775 c-102 -21 -204 -51 -265 -79 -16 -8 -41 -19 -55 -25
-112 -50 -274 -161 -384 -263 -73 -68 -123 -125 -224 -253 -12 -15 -82 -142
-117 -212 -29 -57 -59 -142 -100 -286 -23 -82 -38 -300 -30 -446 12 -243 99
-500 239 -708 71 -106 215 -263 313 -340 284 -225 553 -314 943 -312 273 1
457 49 687 180 149 86 349 276 455 433 148 221 240 524 242 796 l1 115 -734 3
c-543 1 -737 -1 -748 -9 -10 -9 -13 -38 -11 -123 l3 -111 595 -5 c327 -3 601
-9 608 -13 6 -5 12 -27 12 -50 0 -45 -44 -205 -60 -221 -6 -6 -10 -16 -10 -23
0 -14 -56 -135 -88 -188 -157 -267 -458 -475 -759 -526 -92 -15 -361 -12 -448
5 -206 41 -387 127 -540 256 -72 60 -190 192 -243 270 -89 131 -132 230 -179
405 -24 91 -27 117 -27 285 0 169 2 194 27 286 60 227 168 415 330 577 181
180 386 291 612 332 153 28 311 30 454 6 202 -34 330 -91 491 -217 109 -85
131 -108 248 -259 4 -5 23 -34 41 -63 30 -46 38 -53 60 -49 44 7 205 57 214
66 26 26 -127 246 -272 391 -205 205 -412 315 -705 376 -161 33 -416 33 -576
-1z"/>
<path d="M75466 3769 c-9 -57 -2 -2877 7 -2886 14 -14 214 -10 229 5 10 10 14
226 16 1115 2 606 7 1106 11 1110 14 14 51 -26 296 -318 33 -38 78 -90 101
-115 23 -25 70 -79 105 -120 35 -41 69 -79 75 -85 6 -5 55 -62 109 -125 116
-136 172 -200 320 -369 61 -69 166 -191 234 -271 122 -143 216 -253 236 -274
6 -6 66 -76 135 -156 167 -194 380 -430 388 -430 4 0 6 653 4 1452 -2 1132 -5
1454 -15 1460 -21 13 -200 9 -219 -6 -16 -12 -18 -83 -18 -1101 0 -598 -3
-1091 -6 -1096 -3 -5 -15 -9 -27 -9 -22 1 -59 40 -246 264 -46 56 -87 103 -90
106 -10 8 -197 223 -297 341 -49 58 -150 175 -224 260 -75 85 -163 186 -195
225 -91 108 -663 766 -707 814 -13 14 -46 52 -73 85 -28 33 -56 66 -62 73 -7
7 -16 18 -20 25 -5 7 -20 23 -35 36 l-27 23 -5 -33z"/>
<path d="M37713 3764 c-20 -9 -19 -2867 1 -2883 23 -20 929 -3 1076 20 297 46
575 181 767 375 64 64 183 214 183 230 0 7 4 14 8 16 13 5 99 175 122 243 68
193 90 331 90 560 0 226 -24 374 -88 555 -56 155 -182 358 -300 482 -92 96
-152 143 -272 210 -147 83 -260 124 -454 165 -120 26 -127 26 -621 29 -275 2
-506 1 -512 -2z m1132 -282 c88 -20 116 -30 223 -78 29 -13 54 -24 57 -24 2 0
44 -27 93 -61 154 -103 276 -242 356 -404 99 -199 126 -310 134 -535 9 -291
-37 -488 -169 -720 -63 -110 -193 -247 -314 -332 -122 -84 -289 -150 -445
-174 -104 -16 -714 -39 -767 -29 -68 13 -63 -85 -63 1192 0 1082 1 1158 17
1176 17 18 33 18 403 14 341 -4 395 -7 475 -25z"/>
<path d="M40457 3758 c-16 -12 -17 -104 -15 -1441 2 -1077 6 -1430 15 -1435 6
-4 105 -6 220 -5 114 1 454 2 755 2 483 1 548 3 562 17 23 22 23 196 1 214
-12 10 -152 13 -640 15 -587 2 -626 3 -645 20 -19 18 -20 31 -20 510 0 483 0
493 21 519 l20 26 524 0 c604 0 539 -14 548 118 4 70 2 86 -13 105 l-18 22
-527 5 c-511 5 -527 6 -541 25 -20 28 -17 1007 4 1027 10 10 139 13 642 13
499 0 632 3 642 13 8 8 14 50 16 121 l4 108 -47 6 c-26 4 -373 7 -769 7 -562
0 -726 -3 -739 -12z"/>
<path d="M42609 3757 c-21 -7 -21 -8 -17 -1438 l3 -1431 25 -10 c32 -12 186
-6 200 8 8 8 13 198 16 630 5 549 9 642 28 676 0 2 244 5 541 8 l540 5 8 109
c5 77 4 112 -4 122 -9 12 -103 14 -538 14 -460 0 -529 2 -549 16 l-22 15 0
480 c0 386 3 486 14 513 14 33 14 33 97 38 46 3 330 4 632 3 388 -1 552 1 563
9 11 9 15 36 17 121 l2 110 -70 7 c-91 10 -1460 5 -1486 -5z"/>
<path d="M44686 3757 c-16 -12 -17 -89 -14 -1439 2 -784 7 -1430 11 -1435 5
-4 53 -10 107 -11 155 -6 137 -202 139 1460 2 1315 1 1426 -14 1432 -31 12
-210 7 -229 -7z"/>
<path d="M48524 3760 l-29 -5 0 -1432 c0 -787 4 -1435 8 -1440 5 -4 138 -8
295 -7 1246 4 1230 3 1246 20 21 21 23 196 3 213 -10 8 -205 13 -646 18 -610
8 -633 9 -647 27 -12 17 -14 102 -14 507 0 477 0 487 21 513 l20 26 530 0 529
0 10 26 c6 14 10 63 10 108 0 66 -4 87 -17 97 -13 11 -112 15 -527 17 -331 2
-521 7 -538 14 -19 7 -29 20 -33 42 -3 17 -5 243 -3 503 3 438 4 474 21 490
17 17 58 18 649 21 433 1 634 6 639 13 12 20 20 212 9 223 -11 11 -1474 17
-1536 6z"/>
<path d="M51794 3755 c-3 -8 -2 -20 2 -27 4 -7 42 -65 83 -128 41 -63 112
-173 159 -245 106 -165 196 -301 384 -590 83 -126 180 -275 216 -330 36 -55
77 -118 92 -140 70 -103 64 -41 70 -760 l5 -650 80 -7 c97 -8 142 -2 155 23 6
11 10 255 10 639 0 518 2 626 14 655 15 35 33 63 294 460 157 237 290 441 394
600 36 55 117 179 181 276 131 201 141 218 132 227 -4 4 -59 9 -123 10 -154 5
-136 20 -312 -258 -100 -157 -148 -231 -259 -400 -53 -80 -98 -149 -101 -155
-3 -5 -68 -104 -145 -220 -77 -115 -146 -223 -155 -240 -17 -33 -43 -43 -66
-24 -13 11 -101 140 -196 289 -74 117 -158 245 -165 255 -9 11 -65 96 -121
185 -41 64 -128 198 -142 220 -43 63 -100 153 -100 156 0 13 -115 176 -130
184 -10 5 -71 10 -135 10 -92 0 -117 -3 -121 -15z"/>
<path d="M57535 3756 c-19 -13 -19 -40 -20 -882 0 -763 2 -888 17 -1024 16
-141 56 -337 78 -379 4 -9 23 -50 40 -91 84 -196 244 -365 425 -445 135 -59
279 -85 481 -85 214 0 324 25 497 111 221 110 399 351 465 629 6 25 18 75 27
111 29 123 37 460 31 1272 -3 427 -8 782 -11 787 -7 12 -205 13 -223 1 -10 -6
-13 -159 -13 -782 0 -1085 -6 -1189 -76 -1399 -27 -80 -96 -205 -141 -255 -45
-49 -134 -121 -179 -144 -123 -62 -171 -73 -333 -78 -149 -5 -290 7 -314 26
-6 5 -29 14 -51 21 -22 7 -69 32 -105 55 -156 102 -252 245 -316 475 -37 130
-44 328 -44 1251 l0 827 -22 6 c-46 12 -194 6 -213 -8z"/>
<path d="M60173 3760 l-23 -9 5 -1428 c4 -959 9 -1431 16 -1438 15 -15 205
-13 221 3 10 10 14 111 15 470 2 251 6 476 9 500 4 35 11 45 32 53 15 6 140 9
315 7 l289 -3 26 -31 c15 -17 54 -68 87 -115 73 -101 483 -649 532 -709 7 -8
40 -52 73 -97 34 -46 67 -83 73 -84 62 -4 245 -5 255 -1 20 7 14 28 -25 79
-137 179 -562 744 -593 789 -8 12 -36 49 -62 84 -47 61 -61 107 -35 114 134
40 241 87 312 136 162 111 291 292 341 477 20 76 43 242 44 319 0 124 -55 358
-102 426 -10 14 -18 29 -18 33 0 17 -117 160 -163 198 -121 102 -245 157 -457
204 -113 25 -122 25 -630 29 -317 2 -524 0 -537 -6z m1182 -277 c176 -51 331
-173 397 -313 19 -41 41 -100 49 -130 26 -107 12 -440 -21 -485 -4 -5 -12 -25
-18 -42 -16 -47 -98 -153 -146 -189 -42 -31 -111 -69 -181 -99 -22 -10 -92
-26 -155 -36 -97 -16 -171 -19 -471 -19 -345 0 -356 1 -377 21 l-22 20 2 640
c3 556 5 641 18 650 9 6 171 8 435 6 384 -4 426 -6 490 -24z"/>
<path d="M64063 3759 c-10 -10 -13 -312 -13 -1441 0 -1349 1 -1428 18 -1436 9
-4 240 -5 512 -1 519 7 564 11 737 60 314 88 575 277 757 548 47 71 156 285
156 309 0 7 9 41 20 75 43 137 54 232 55 462 0 196 -3 231 -23 320 -24 102
-69 252 -82 270 -4 6 -13 26 -20 45 -69 173 -272 435 -409 526 -209 139 -347
196 -596 245 -102 20 -147 22 -605 26 -396 4 -498 2 -507 -8z m1122 -276 c206
-49 379 -143 527 -285 164 -159 246 -307 314 -568 20 -74 26 -130 31 -255 6
-165 0 -226 -37 -380 -94 -403 -366 -695 -757 -813 -108 -33 -308 -50 -623
-54 -260 -3 -288 -1 -313 15 l-27 17 0 1156 c0 804 3 1161 11 1175 10 20 18
20 397 17 350 -4 396 -6 477 -25z"/>
<path d="M66802 3758 c-15 -15 -17 -2844 -3 -2867 8 -13 118 -14 778 -12 422
1 770 5 773 8 8 8 5 221 -4 230 -4 4 -285 9 -624 10 -339 1 -623 3 -629 3 -7
0 -22 9 -33 20 -19 19 -20 33 -20 513 0 410 2 496 14 513 14 18 33 19 547 21
420 2 534 5 541 15 9 15 11 199 2 222 -5 14 -61 16 -526 16 -518 0 -549 2
-570 34 -4 6 -8 232 -8 502 0 408 2 493 14 510 14 19 30 19 649 15 526 -3 636
-1 643 10 15 24 18 217 4 234 -11 13 -112 15 -774 15 -579 0 -765 -3 -774 -12z"/>
<path d="M71388 3759 c-17 -9 -18 -89 -18 -1439 0 -1403 0 -1429 19 -1440 30
-16 206 -13 220 4 8 10 10 396 9 1447 l-3 1434 -105 2 c-59 2 -113 -2 -122 -8z"/>
</g>
</svg>
